{
    "asset" : {
        "generator" : "Khronos glTF Blender I/O v1.6.16",
        "version" : "2.0"
    },
    "scene" : 0,
    "scenes" : [
        {
            "name" : "Scene",
            "nodes" : [
                0
            ]
        }
    ],
    "nodes" : [
        {
            "mesh" : 0,
            "name" : "1930.004"
        }
    ],
    "materials" : [
        {
            "doubleSided" : true,
            "name" : "Paint (2).004",
            "pbrMetallicRoughness" : {
                "baseColorFactor" : [
                    0,
                    0.49799999594688416,
                    0,
                    1
                ],
                "metallicFactor" : 0,
                "roughnessFactor" : 0.46770936250686646
            }
        }
    ],
    "meshes" : [
        {
            "name" : "1930.004",
            "primitives" : [
                {
                    "attributes" : {
                        "POSITION" : 0,
                        "NORMAL" : 1,
                        "TEXCOORD_0" : 2
                    },
                    "indices" : 3,
                    "material" : 0
                }
            ]
        }
    ],
    "accessors" : [
        {
            "bufferView" : 0,
            "componentType" : 5126,
            "count" : 17454,
            "max" : [
                853.5089721679688,
                15.316200256347656,
                1856.510009765625
            ],
            "min" : [
                -625.910400390625,
                -2.0929689407348633,
                -1676.7811279296875
            ],
            "type" : "VEC3"
        },
        {
            "bufferView" : 1,
            "componentType" : 5126,
            "count" : 17454,
            "type" : "VEC3"
        },
        {
            "bufferView" : 2,
            "componentType" : 5126,
            "count" : 17454,
            "type" : "VEC2"
        },
        {
            "bufferView" : 3,
            "componentType" : 5123,
            "count" : 41796,
            "type" : "SCALAR"
        }
    ],
    "bufferViews" : [
        {
            "buffer" : 0,
            "byteLength" : 209448,
            "byteOffset" : 0
        },
        {
            "buffer" : 0,
            "byteLength" : 209448,
            "byteOffset" : 209448
        },
        {
            "buffer" : 0,
            "byteLength" : 139632,
            "byteOffset" : 418896
        },
        {
            "buffer" : 0,
            "byteLength" : 83592,
            "byteOffset" : 558528
        }
    ],
    "buffers" : [
        {
            "byteLength" : 642120,
            "uri" : "data:application/octet-stream;base64,"
        }
    ]
}
