{
    "asset" : {
        "generator" : "Khronos glTF Blender I/O v1.6.16",
        "version" : "2.0"
    },
    "scene" : 0,
    "scenes" : [
        {
            "name" : "Scene",
            "nodes" : [
                0
            ]
        }
    ],
    "nodes" : [
        {
            "mesh" : 0,
            "name" : "1924.001"
        }
    ],
    "materials" : [
        {
            "doubleSided" : true,
            "name" : "Paint (1).001",
            "pbrMetallicRoughness" : {
                "baseColorFactor" : [
                    1,
                    0.49799999594688416,
                    0,
                    1
                ],
                "metallicFactor" : 0,
                "roughnessFactor" : 0.46770936250686646
            }
        }
    ],
    "meshes" : [
        {
            "name" : "1924.001",
            "primitives" : [
                {
                    "attributes" : {
                        "POSITION" : 0,
                        "NORMAL" : 1,
                        "TEXCOORD_0" : 2
                    },
                    "indices" : 3,
                    "material" : 0
                }
            ]
        }
    ],
    "accessors" : [
        {
            "bufferView" : 0,
            "componentType" : 5126,
            "count" : 14312,
            "max" : [
                852.8848876953125,
                15.265399932861328,
                1896.5960693359375
            ],
            "min" : [
                -638.2920532226562,
                0.02539999969303608,
                -1697.3016357421875
            ],
            "type" : "VEC3"
        },
        {
            "bufferView" : 1,
            "componentType" : 5126,
            "count" : 14312,
            "type" : "VEC3"
        },
        {
            "bufferView" : 2,
            "componentType" : 5126,
            "count" : 14312,
            "type" : "VEC2"
        },
        {
            "bufferView" : 3,
            "componentType" : 5123,
            "count" : 34122,
            "type" : "SCALAR"
        }
    ],
    "bufferViews" : [
        {
            "buffer" : 0,
            "byteLength" : 171744,
            "byteOffset" : 0
        },
        {
            "buffer" : 0,
            "byteLength" : 171744,
            "byteOffset" : 171744
        },
        {
            "buffer" : 0,
            "byteLength" : 114496,
            "byteOffset" : 343488
        },
        {
            "buffer" : 0,
            "byteLength" : 68244,
            "byteOffset" : 457984
        }
    ],
    "buffers" : [
        {
            "byteLength" : 526228,
            "uri" : "data:application/octet-stream;base64,"
        }
    ]
}
