{
    "asset" : {
        "generator" : "Khronos glTF Blender I/O v1.6.16",
        "version" : "2.0"
    },
    "scene" : 0,
    "scenes" : [
        {
            "name" : "Scene",
            "nodes" : [
                0
            ]
        }
    ],
    "nodes" : [
        {
            "mesh" : 0,
            "name" : "1984.006"
        }
    ],
    "materials" : [
        {
            "doubleSided" : true,
            "name" : "Paint (3).006",
            "pbrMetallicRoughness" : {
                "baseColorFactor" : [
                    0,
                    0,
                    1,
                    1
                ],
                "metallicFactor" : 0,
                "roughnessFactor" : 0.46770936250686646
            }
        }
    ],
    "meshes" : [
        {
            "name" : "1984.006",
            "primitives" : [
                {
                    "attributes" : {
                        "POSITION" : 0,
                        "NORMAL" : 1,
                        "TEXCOORD_0" : 2
                    },
                    "indices" : 3,
                    "material" : 0
                }
            ]
        }
    ],
    "accessors" : [
        {
            "bufferView" : 0,
            "componentType" : 5126,
            "count" : 33046,
            "max" : [
                1556.32666015625,
                15.316200256347656,
                1853.3077392578125
            ],
            "min" : [
                -778.8865966796875,
                0.07620000094175339,
                -1742.475341796875
            ],
            "type" : "VEC3"
        },
        {
            "bufferView" : 1,
            "componentType" : 5126,
            "count" : 33046,
            "type" : "VEC3"
        },
        {
            "bufferView" : 2,
            "componentType" : 5126,
            "count" : 33046,
            "type" : "VEC2"
        },
        {
            "bufferView" : 3,
            "componentType" : 5123,
            "count" : 85050,
            "type" : "SCALAR"
        }
    ],
    "bufferViews" : [
        {
            "buffer" : 0,
            "byteLength" : 396552,
            "byteOffset" : 0
        },
        {
            "buffer" : 0,
            "byteLength" : 396552,
            "byteOffset" : 396552
        },
        {
            "buffer" : 0,
            "byteLength" : 264368,
            "byteOffset" : 793104
        },
        {
            "buffer" : 0,
            "byteLength" : 170100,
            "byteOffset" : 1057472
        }
    ],
    "buffers" : [
        {
            "byteLength" : 1227572,
            "uri" : "data:application/octet-stream;base64,"
        }
    ]
}
