{
    "asset" : {
        "generator" : "Khronos glTF Blender I/O v1.6.16",
        "version" : "2.0"
    },
    "scene" : 0,
    "scenes" : [
        {
            "name" : "Scene",
            "nodes" : [
                0
            ]
        }
    ],
    "nodes" : [
        {
            "mesh" : 0,
            "name" : "1903"
        }
    ],
    "materials" : [
        {
            "doubleSided" : true,
            "name" : "Paint",
            "pbrMetallicRoughness" : {
                "baseColorFactor" : [
                    1,
                    0,
                    0,
                    1
                ],
                "metallicFactor" : 0
            }
        }
    ],
    "meshes" : [
        {
            "name" : "1903",
            "primitives" : [
                {
                    "attributes" : {
                        "POSITION" : 0,
                        "NORMAL" : 1,
                        "TEXCOORD_0" : 2
                    },
                    "indices" : 3,
                    "material" : 0
                }
            ]
        }
    ],
    "accessors" : [
        {
            "bufferView" : 0,
            "componentType" : 5126,
            "count" : 9962,
            "max" : [
                749.4583129882812,
                15.427800178527832,
                138.42633056640625
            ],
            "min" : [
                -479.4416809082031,
                0.1777999997138977,
                -1647.0753173828125
            ],
            "type" : "VEC3"
        },
        {
            "bufferView" : 1,
            "componentType" : 5126,
            "count" : 9962,
            "type" : "VEC3"
        },
        {
            "bufferView" : 2,
            "componentType" : 5126,
            "count" : 9962,
            "type" : "VEC2"
        },
        {
            "bufferView" : 3,
            "componentType" : 5123,
            "count" : 24042,
            "type" : "SCALAR"
        }
    ],
    "bufferViews" : [
        {
            "buffer" : 0,
            "byteLength" : 119544,
            "byteOffset" : 0
        },
        {
            "buffer" : 0,
            "byteLength" : 119544,
            "byteOffset" : 119544
        },
        {
            "buffer" : 0,
            "byteLength" : 79696,
            "byteOffset" : 239088
        },
        {
            "buffer" : 0,
            "byteLength" : 48084,
            "byteOffset" : 318784
        }
    ],
    "buffers" : [
        {
            "byteLength" : 366868,
            "uri" : "data:application/octet-stream;base64,"
        }
    ]
}
