{
    "asset" : {
        "generator" : "Khronos glTF Blender I/O v1.6.16",
        "version" : "2.0"
    },
    "scene" : 0,
    "scenes" : [
        {
            "name" : "Scene",
            "nodes" : [
                0
            ]
        }
    ],
    "nodes" : [
        {
            "mesh" : 0,
            "name" : "2021.010"
        }
    ],
    "materials" : [
        {
            "doubleSided" : true,
            "name" : "Paint (4).010",
            "pbrMetallicRoughness" : {
                "baseColorFactor" : [
                    0.7490000128746033,
                    0.24709999561309814,
                    1,
                    1
                ],
                "metallicFactor" : 0,
                "roughnessFactor" : 0.46770936250686646
            }
        }
    ],
    "meshes" : [
        {
            "name" : "2021.010",
            "primitives" : [
                {
                    "attributes" : {
                        "POSITION" : 0,
                        "NORMAL" : 1,
                        "TEXCOORD_0" : 2
                    },
                    "indices" : 3,
                    "material" : 0
                }
            ]
        }
    ],
    "accessors" : [
        {
            "bufferView" : 0,
            "componentType" : 5126,
            "count" : 3601,
            "max" : [
                1554.882568359375,
                15.265399932861328,
                1826.326416015625
            ],
            "min" : [
                -632.4429931640625,
                -0.05079999938607216,
                -1746.20654296875
            ],
            "type" : "VEC3"
        },
        {
            "bufferView" : 1,
            "componentType" : 5126,
            "count" : 3601,
            "type" : "VEC3"
        },
        {
            "bufferView" : 2,
            "componentType" : 5126,
            "count" : 3601,
            "type" : "VEC2"
        },
        {
            "bufferView" : 3,
            "componentType" : 5123,
            "count" : 8760,
            "type" : "SCALAR"
        }
    ],
    "bufferViews" : [
        {
            "buffer" : 0,
            "byteLength" : 43212,
            "byteOffset" : 0
        },
        {
            "buffer" : 0,
            "byteLength" : 43212,
            "byteOffset" : 43212
        },
        {
            "buffer" : 0,
            "byteLength" : 28808,
            "byteOffset" : 86424
        },
        {
            "buffer" : 0,
            "byteLength" : 17520,
            "byteOffset" : 115232
        }
    ],
    "buffers" : [
        {
            "byteLength" : 132752,
            "uri" : "data:application/octet-stream;base64,"
        }
    ]
}
