{
    "asset" : {
        "generator" : "Khronos glTF Blender I/O v1.6.16",
        "version" : "2.0"
    },
    "scene" : 0,
    "scenes" : [
        {
            "name" : "Scene",
            "nodes" : [
                0
            ]
        }
    ],
    "nodes" : [
        {
            "mesh" : 0,
            "name" : "1924.006"
        }
    ],
    "materials" : [
        {
            "doubleSided" : true,
            "name" : "Paint (1).005",
            "pbrMetallicRoughness" : {
                "baseColorFactor" : [
                    1,
                    0.49799999594688416,
                    0,
                    1
                ],
                "metallicFactor" : 0,
                "roughnessFactor" : 0.46770936250686646
            }
        }
    ],
    "meshes" : [
        {
            "name" : "1924.006",
            "primitives" : [
                {
                    "attributes" : {
                        "POSITION" : 0,
                        "NORMAL" : 1,
                        "TEXCOORD_0" : 2
                    },
                    "indices" : 3,
                    "material" : 0
                }
            ]
        }
    ],
    "accessors" : [
        {
            "bufferView" : 0,
            "componentType" : 5126,
            "count" : 13992,
            "max" : [
                848.6965942382812,
                15.376999855041504,
                1872.5906982421875
            ],
            "min" : [
                -626.0957641601562,
                0.12700000405311584,
                -1689.0784912109375
            ],
            "type" : "VEC3"
        },
        {
            "bufferView" : 1,
            "componentType" : 5126,
            "count" : 13992,
            "type" : "VEC3"
        },
        {
            "bufferView" : 2,
            "componentType" : 5126,
            "count" : 13992,
            "type" : "VEC2"
        },
        {
            "bufferView" : 3,
            "componentType" : 5123,
            "count" : 33162,
            "type" : "SCALAR"
        }
    ],
    "bufferViews" : [
        {
            "buffer" : 0,
            "byteLength" : 167904,
            "byteOffset" : 0
        },
        {
            "buffer" : 0,
            "byteLength" : 167904,
            "byteOffset" : 167904
        },
        {
            "buffer" : 0,
            "byteLength" : 111936,
            "byteOffset" : 335808
        },
        {
            "buffer" : 0,
            "byteLength" : 66324,
            "byteOffset" : 447744
        }
    ],
    "buffers" : [
        {
            "byteLength" : 514068,
            "uri" : "data:application/octet-stream;base64,"
        }
    ]
}
