{
    "asset" : {
        "generator" : "Khronos glTF Blender I/O v1.6.16",
        "version" : "2.0"
    },
    "scene" : 0,
    "scenes" : [
        {
            "name" : "Scene",
            "nodes" : [
                0
            ]
        }
    ],
    "nodes" : [
        {
            "mesh" : 0,
            "name" : "1984.018"
        }
    ],
    "materials" : [
        {
            "doubleSided" : true,
            "name" : "Paint (3).018",
            "pbrMetallicRoughness" : {
                "baseColorFactor" : [
                    0,
                    0,
                    1,
                    1
                ],
                "metallicFactor" : 0,
                "roughnessFactor" : 0.46770936250686646
            }
        }
    ],
    "meshes" : [
        {
            "name" : "1984.018",
            "primitives" : [
                {
                    "attributes" : {
                        "POSITION" : 0,
                        "NORMAL" : 1,
                        "TEXCOORD_0" : 2
                    },
                    "indices" : 3,
                    "material" : 0
                }
            ]
        }
    ],
    "accessors" : [
        {
            "bufferView" : 0,
            "componentType" : 5126,
            "count" : 32942,
            "max" : [
                1553.789794921875,
                15.265399932861328,
                1851.2552490234375
            ],
            "min" : [
                -766.8541870117188,
                -3.705366611480713,
                -1732.42626953125
            ],
            "type" : "VEC3"
        },
        {
            "bufferView" : 1,
            "componentType" : 5126,
            "count" : 32942,
            "type" : "VEC3"
        },
        {
            "bufferView" : 2,
            "componentType" : 5126,
            "count" : 32942,
            "type" : "VEC2"
        },
        {
            "bufferView" : 3,
            "componentType" : 5123,
            "count" : 84738,
            "type" : "SCALAR"
        }
    ],
    "bufferViews" : [
        {
            "buffer" : 0,
            "byteLength" : 395304,
            "byteOffset" : 0
        },
        {
            "buffer" : 0,
            "byteLength" : 395304,
            "byteOffset" : 395304
        },
        {
            "buffer" : 0,
            "byteLength" : 263536,
            "byteOffset" : 790608
        },
        {
            "buffer" : 0,
            "byteLength" : 169476,
            "byteOffset" : 1054144
        }
    ],
    "buffers" : [
        {
            "byteLength" : 1223620,
            "uri" : "data:application/octet-stream;base64,"
        }
    ]
}
