{
    "asset" : {
        "generator" : "Khronos glTF Blender I/O v1.6.16",
        "version" : "2.0"
    },
    "scene" : 0,
    "scenes" : [
        {
            "name" : "Scene",
            "nodes" : [
                0
            ]
        }
    ],
    "nodes" : [
        {
            "mesh" : 0,
            "name" : "1903.004"
        }
    ],
    "materials" : [
        {
            "doubleSided" : true,
            "name" : "Paint.003",
            "pbrMetallicRoughness" : {
                "baseColorFactor" : [
                    1,
                    0,
                    0,
                    1
                ],
                "metallicFactor" : 0
            }
        }
    ],
    "meshes" : [
        {
            "name" : "1903.004",
            "primitives" : [
                {
                    "attributes" : {
                        "POSITION" : 0,
                        "NORMAL" : 1,
                        "TEXCOORD_0" : 2
                    },
                    "indices" : 3,
                    "material" : 0
                }
            ]
        }
    ],
    "accessors" : [
        {
            "bufferView" : 0,
            "componentType" : 5126,
            "count" : 10150,
            "max" : [
                737.5338745117188,
                15.239999771118164,
                130.1140594482422
            ],
            "min" : [
                -491.3660888671875,
                0,
                -1655.3875732421875
            ],
            "type" : "VEC3"
        },
        {
            "bufferView" : 1,
            "componentType" : 5126,
            "count" : 10150,
            "type" : "VEC3"
        },
        {
            "bufferView" : 2,
            "componentType" : 5126,
            "count" : 10150,
            "type" : "VEC2"
        },
        {
            "bufferView" : 3,
            "componentType" : 5123,
            "count" : 24606,
            "type" : "SCALAR"
        }
    ],
    "bufferViews" : [
        {
            "buffer" : 0,
            "byteLength" : 121800,
            "byteOffset" : 0
        },
        {
            "buffer" : 0,
            "byteLength" : 121800,
            "byteOffset" : 121800
        },
        {
            "buffer" : 0,
            "byteLength" : 81200,
            "byteOffset" : 243600
        },
        {
            "buffer" : 0,
            "byteLength" : 49212,
            "byteOffset" : 324800
        }
    ],
    "buffers" : [
        {
            "byteLength" : 374012,
            "uri" : "data:application/octet-stream;base64,"
        }
    ]
}
