{
    "asset" : {
        "generator" : "Khronos glTF Blender I/O v1.6.16",
        "version" : "2.0"
    },
    "scene" : 0,
    "scenes" : [
        {
            "name" : "Scene",
            "nodes" : [
                0
            ]
        }
    ],
    "nodes" : [
        {
            "mesh" : 0,
            "name" : "1930.001"
        }
    ],
    "materials" : [
        {
            "doubleSided" : true,
            "name" : "Paint (2).001",
            "pbrMetallicRoughness" : {
                "baseColorFactor" : [
                    0,
                    0.49799999594688416,
                    0,
                    1
                ],
                "metallicFactor" : 0,
                "roughnessFactor" : 0.46770936250686646
            }
        }
    ],
    "meshes" : [
        {
            "name" : "1930.001",
            "primitives" : [
                {
                    "attributes" : {
                        "POSITION" : 0,
                        "NORMAL" : 1,
                        "TEXCOORD_0" : 2
                    },
                    "indices" : 3,
                    "material" : 0
                }
            ]
        }
    ],
    "accessors" : [
        {
            "bufferView" : 0,
            "componentType" : 5126,
            "count" : 17520,
            "max" : [
                857.6991577148438,
                15.290800094604492,
                1880.5130615234375
            ],
            "min" : [
                -635.82763671875,
                0.05079999938607216,
                -1689.4822998046875
            ],
            "type" : "VEC3"
        },
        {
            "bufferView" : 1,
            "componentType" : 5126,
            "count" : 17520,
            "type" : "VEC3"
        },
        {
            "bufferView" : 2,
            "componentType" : 5126,
            "count" : 17520,
            "type" : "VEC2"
        },
        {
            "bufferView" : 3,
            "componentType" : 5123,
            "count" : 41994,
            "type" : "SCALAR"
        }
    ],
    "bufferViews" : [
        {
            "buffer" : 0,
            "byteLength" : 210240,
            "byteOffset" : 0
        },
        {
            "buffer" : 0,
            "byteLength" : 210240,
            "byteOffset" : 210240
        },
        {
            "buffer" : 0,
            "byteLength" : 140160,
            "byteOffset" : 420480
        },
        {
            "buffer" : 0,
            "byteLength" : 83988,
            "byteOffset" : 560640
        }
    ],
    "buffers" : [
        {
            "byteLength" : 644628,
            "uri" : "data:application/octet-stream;base64,"
        }
    ]
}
